<?xml version="1.0" encoding="UTF-8" standalone="no"?>
<!-- Created with Inkscape (http://www.inkscape.org/) -->
<svg
   xmlns:svg="http://www.w3.org/2000/svg"
   xmlns="http://www.w3.org/2000/svg"
   xmlns:xlink="http://www.w3.org/1999/xlink"
   version="1.0"
   x="0.0000000"
   y="0.0000000"
   width="310.00000"
   height="410.00000"
   id="svg1498">
  <defs
     id="cairo-artwork_defs">
    <g
       id="hacker_emblem">
      <g
         style="fill:#ffffff;stroke:none"
         id="hacker_emblem_grid">
        <rect
           width="6.0000000"
           height="0.10000000"
           x="-2.9500000"
           y="-3.0500000"
           id="rect1503" />
        <rect
           width="0.10000000"
           height="6.0000000"
           x="2.9500000"
           y="-2.9500000"
           id="rect1505" />
        <rect
           width="6.0000000"
           height="0.10000000"
           x="-3.0500000"
           y="2.9500000"
           id="rect1507" />
        <rect
           width="0.10000000"
           height="6.0000000"
           x="-3.0500000"
           y="-3.0500000"
           id="rect1509" />
        <rect
           width="0.10000000"
           height="5.9000001"
           x="-1.0500000"
           y="-2.9500000"
           id="rect1511" />
        <rect
           width="0.10000000"
           height="5.9000001"
           x="0.94999999"
           y="-2.9500000"
           id="rect1513" />
        <rect
           width="1.9000000"
           height="0.10000000"
           x="-2.9500000"
           y="-1.0500000"
           id="rect1515" />
        <rect
           width="1.9000000"
           height="0.10000000"
           x="-0.94999999"
           y="-1.0500000"
           id="rect1517" />
        <rect
           width="1.9000000"
           height="0.10000000"
           x="1.0500000"
           y="-1.0500000"
           id="rect1519" />
        <rect
           width="1.9000000"
           height="0.10000000"
           x="-2.9500000"
           y="0.94999999"
           id="rect1521" />
        <rect
           width="1.9000000"
           height="0.10000000"
           x="-0.94999999"
           y="0.94999999"
           id="rect1523" />
        <rect
           width="1.9000000"
           height="0.10000000"
           x="1.0500000"
           y="0.94999999"
           id="rect1525" />
      </g>
      <g
         style="fill:#ffffff"
         id="hacker_emblem_dots">
        <circle
           cx="0.0000000"
           cy="-2.0000000"
           r="0.69999999"
           id="circle1528" />
        <circle
           cx="2.0000000"
           cy="0.0000000"
           r="0.69999999"
           id="circle1530" />
        <circle
           cx="-2.0000000"
           cy="2.0000000"
           r="0.69999999"
           id="circle1532" />
        <circle
           cx="0.0000000"
           cy="2.0000000"
           r="0.69999999"
           id="circle1534" />
        <circle
           cx="2.0000000"
           cy="2.0000000"
           r="0.69999999"
           id="circle1536" />
      </g>
    </g>
    <g
       style="fill:#3b80ae"
       id="scarab">
      <g
         transform="translate(-150.0000,-170.0000)"
         id="g1539">
        <path
           d="M 205.59900,94.567000 C 205.59900,82.899000 180.68500,73.438000 149.97100,73.438000 C 119.24800,73.438000 94.347000,82.898000 94.347000,94.567000 C 94.347000,104.77000 119.24800,101.91300 149.97100,101.91300 C 180.68500,101.91300 205.59900,104.23300 205.59900,94.567000 z "
           id="scarab_head" />
        <path
           d="M 136.42300,161.50600 C 136.42300,161.50600 149.17400,174.08300 149.97000,174.86800 C 152.23200,172.63600 163.51500,161.50600 163.51500,161.50600 C 170.65000,154.47000 250.62600,155.10700 254.58100,155.14300 C 254.11200,148.84500 253.32700,142.67100 252.25600,136.62400 C 237.07300,117.34500 209.44500,104.39900 177.77100,104.39900 L 122.25300,104.39900 C 90.508000,104.39900 62.814000,117.41000 47.655000,136.76900 C 46.601000,142.76900 45.826000,148.89700 45.359000,155.14300 C 49.321000,155.10600 129.28800,154.47000 136.42300,161.50600 z "
           id="scarab_torso" />
        <path
           d="M 149.97000,301.18700 C 151.97500,276.45800 158.35600,197.70400 158.37500,197.46600 C 158.28500,197.24700 151.89700,181.88800 149.97000,177.25200 C 148.03400,181.90700 141.65400,197.24700 141.56200,197.46600 C 141.58200,197.70400 147.96500,276.45800 149.97000,301.18700 z "
           id="scarab_spine" />
        <path
           d="M 140.40300,197.14900 L 149.26500,175.83900 L 135.57900,162.34000 C 129.92900,156.76700 68.505000,156.10500 45.320000,156.32100 L 45.314000,155.69900 C 45.160000,157.84300 45.043000,160.00100 44.964000,162.17400 C 44.888000,164.38100 55.356000,166.88000 55.356000,168.89100 C 55.356000,171.21000 44.899000,173.97500 44.997000,176.52200 C 47.990000,249.87100 93.527000,308.15300 149.36900,308.57000 L 140.34900,197.28000 L 140.40300,197.14900 z "
           id="scarab_wing_left" />
        <path
           d="M 244.58500,168.89100 C 244.58500,166.88000 255.05200,164.38500 254.97600,162.17600 C 254.89700,160.00200 254.78100,157.84400 254.62500,155.69700 L 254.62100,156.32100 C 231.43500,156.10500 170.01300,156.76600 164.36100,162.33800 L 150.67300,175.84000 L 159.58800,197.27800 L 150.57100,308.56800 C 206.42500,308.15100 251.94900,249.87000 254.94400,176.51900 C 255.04000,173.97600 244.58500,171.20900 244.58500,168.89100 z "
           id="scarab_wing_right" />
        <path
           d="M 44.506000,141.12000 C 40.371000,140.26400 39.611000,139.58000 36.571000,138.20000 C 26.981000,134.83600 26.195000,132.71900 20.491000,126.34000 C 13.065000,118.03400 7.8300000,106.19800 3.3910000,96.877000 C -0.18500000,89.352000 -0.59300000,80.468000 0.53100000,72.604000 C 1.5220000,65.669000 7.6750000,59.735000 12.605000,53.684000 C 18.449000,46.493000 22.961000,38.862000 30.529000,32.330000 C 38.265000,25.648000 53.732000,22.521000 56.697000,12.682000 C 57.860000,8.8190000 54.334000,1.7660000 61.482000,0.0000000 C 61.116000,4.7030000 65.121000,8.4770000 63.879000,13.575000 C 62.750000,18.202000 59.511000,19.386000 54.268000,22.674000 C 46.704000,27.420000 35.902000,31.453000 29.520000,36.639000 C 22.345000,42.466000 25.151000,50.410000 18.951000,56.696000 C 16.950000,58.726000 11.050000,61.402000 9.8140000,63.526000 C 7.9530000,66.725000 9.5170000,73.098000 9.6980000,76.646000 C 10.123000,84.930000 15.286000,90.890000 19.253000,98.691000 C 23.405000,106.83200 25.682000,114.10000 32.664000,121.21000 C 36.847000,125.47200 44.093000,126.01200 48.874000,131.85700 L 45.319000,136.04300 L 44.506000,141.12000 z "
           id="scarab_leg_front_left" />
        <path
           d="M 43.940000,191.92200 L 43.131000,184.57600 C 33.625000,179.99700 32.792000,174.80400 22.393000,172.11000 C -1.3350000,165.95900 1.0320000,183.36000 6.8610000,198.48300 C 12.537000,213.20900 15.098000,228.71300 21.206000,243.27800 C 24.011000,249.96600 28.125000,256.49100 35.504000,258.40500 C 35.876000,249.97000 34.587000,247.75400 29.391000,241.48600 C 24.996000,236.19300 26.065000,228.93800 23.319000,222.98200 C 19.738000,215.17800 19.123000,207.33600 16.040000,199.48000 C 14.677000,196.00100 7.7100000,185.51400 9.5880000,181.61900 C 12.771000,175.01600 18.766000,181.53600 21.767000,183.69600 C 25.985000,186.73200 28.234000,185.91900 33.448000,186.59400 C 34.041000,186.67300 37.005000,188.75600 43.940000,191.92200 z "
           id="scarab_leg_middle_left" />
        <path
           d="M 65.839000,257.06300 L 63.068000,252.22600 C 56.388000,261.15400 56.075000,268.45400 53.012000,275.57300 C 47.735000,287.83600 52.855000,304.42400 62.866000,313.24900 C 68.918000,318.62400 78.773000,322.86700 85.988000,326.38500 C 96.023000,331.27700 106.10100,337.67100 117.32400,339.78100 C 119.80600,340.24700 126.12200,341.07600 124.01700,336.25900 C 123.04200,334.02200 115.92600,331.66800 113.87100,330.52500 C 105.55900,325.90200 97.494000,320.00100 89.729000,314.34900 C 80.231000,307.48700 68.886000,303.16300 61.418000,293.66500 C 58.364000,289.78000 57.874000,288.74300 58.602000,284.27500 C 59.295000,280.01200 59.946000,275.10100 60.843000,270.83600 C 61.855000,266.02900 63.274000,261.37800 65.839000,257.06300 z "
           id="scarab_leg_back_left" />
        <path
           d="M 255.48700,141.12000 C 259.62100,140.26400 260.38300,139.58000 263.42300,138.20000 C 273.00600,134.83600 273.79200,132.71900 279.49400,126.34000 C 286.92200,118.03400 292.15500,106.19800 296.60900,96.877000 C 300.18300,89.352000 300.59200,80.468000 299.46900,72.604000 C 298.47700,65.669000 292.31200,59.735000 287.38200,53.684000 C 281.53900,46.493000 277.02600,38.862000 269.46300,32.330000 C 261.72800,25.648000 246.26100,22.521000 243.29600,12.682000 C 242.13500,8.8190000 245.66000,1.7660000 238.51100,0.0000000 C 238.87700,4.7030000 234.87400,8.4770000 236.11500,13.575000 C 237.24600,18.202000 240.48300,19.386000 245.72600,22.674000 C 253.28900,27.420000 264.09300,31.453000 270.47300,36.639000 C 277.64300,42.466000 274.83500,50.410000 281.03600,56.696000 C 283.03700,58.726000 288.93700,61.402000 290.17500,63.526000 C 292.03400,66.725000 290.47000,73.098000 290.28800,76.646000 C 289.86400,84.930000 284.70000,90.890000 280.73500,98.691000 C 276.58300,106.83200 274.30400,114.10000 267.33100,121.21000 C 263.14700,125.47200 255.90200,126.01200 251.12000,131.85700 L 254.67600,136.04300 L 255.48700,141.12000 z "
           id="scarab_leg_front_right" />
        <path
           d="M 256.05300,191.92200 L 256.86300,184.57600 C 266.37000,179.99700 267.20300,174.80400 277.59300,172.11000 C 301.33400,165.95900 298.96700,183.36000 293.12700,198.48300 C 287.45100,213.20900 284.88900,228.71300 278.78000,243.27800 C 275.97600,249.96600 271.86900,256.49100 264.48900,258.40500 C 264.11800,249.97000 265.40700,247.75400 270.60200,241.48600 C 274.99200,236.19300 273.92100,228.93800 276.66800,222.98200 C 280.24800,215.17800 280.86500,207.33600 283.94600,199.48000 C 285.30900,196.00100 292.27600,185.51400 290.39900,181.61900 C 287.21500,175.01600 281.22000,181.53600 278.21800,183.69600 C 274.00100,186.73200 271.76000,185.91900 266.54600,186.59400 C 265.95100,186.67300 262.98600,188.75600 256.05300,191.92200 z "
           id="scarab_leg_middle_right" />
        <path
           d="M 234.15500,257.06300 L 236.92600,252.22600 C 243.60500,261.15400 243.91700,268.45400 246.98300,275.57300 C 252.25700,287.83600 247.13700,304.42400 237.12900,313.24900 C 231.07400,318.62400 221.22600,322.86700 214.01200,326.38500 C 203.97800,331.27700 193.88500,337.67100 182.66100,339.78100 C 180.18000,340.24700 173.87200,341.07600 175.97000,336.25900 C 176.94600,334.02200 184.06200,331.66800 186.11600,330.52500 C 194.42800,325.90200 202.50800,320.00100 210.27100,314.34900 C 219.76900,307.48700 231.10900,303.16300 238.57600,293.66500 C 241.63100,289.78000 242.11900,288.74300 241.39400,284.27500 C 240.69800,280.01200 240.04800,275.10100 239.15000,270.83600 C 238.13700,266.02900 236.71800,261.37800 234.15500,257.06300 z "
           id="scarab_leg_back_right" />
      </g>
    </g>
    <radialGradient
       cx="0.0000000"
       cy="0.0000000"
       r="60.000000"
       fx="0.0000000"
       fy="0.0000000"
       id="gradient_radial_dung"
       gradientUnits="userSpaceOnUse">
      <stop
         style="stop-color:#9a9a9a;stop-opacity:1.0000000"
         offset="0.0000000"
         id="stop1553" />
      <stop
         style="stop-color:#bababa;stop-opacity:1.0000000"
         offset="0.69999999"
         id="stop1555" />
      <stop
         style="stop-color:#ffffff;stop-opacity:1.0000000"
         offset="0.94999999"
         id="stop1557" />
    </radialGradient>
    <g
       id="dung">
      <circle
         cx="0.0000000"
         cy="0.0000000"
         r="60.000000"
         style="fill:url(#gradient_radial_dung)"
         id="circle1560" />
      <g
         transform="translate(-61.00000,-61.00000)"
         id="g1562">
        <path
           d="M 0.0000000,61.000000 C 0.0000000,94.636000 27.364000,122.00000 61.000000,122.00000 C 94.636000,122.00000 122.00000,94.636000 122.00000,61.000000 C 122.00000,27.364000 94.636000,0.0000000 61.000000,0.0000000 C 27.364000,0.0000000 0.0000000,27.364000 0.0000000,61.000000 z M 2.0000000,61.000000 C 2.0000000,28.467000 28.467000,2.0000000 61.000000,2.0000000 C 93.532000,2.0000000 120.00000,28.467000 120.00000,61.000000 C 120.00000,93.533000 93.532000,120.00000 61.000000,120.00000 C 28.467000,120.00000 2.0000000,93.533000 2.0000000,61.000000 z "
           style="fill:#8a8a8a"
           id="path1564" />
      </g>
      <use
         transform="scale(9.000000,9.000000)"
         id="use1566"
         x="0.0000000"
         y="0.0000000"
         width="310.00000"
         height="410.00000"
         xlink:href="#hacker_emblem" />
    </g>
    <g
       id="cairo_logo">
      <use
         transform="translate(0.000000,-140.0000)"
         id="use1569"
         x="0.0000000"
         y="0.0000000"
         width="310.00000"
         height="410.00000"
         xlink:href="#dung" />
      <use
         transform="translate(0.000000,30.00000)"
         id="use1571"
         x="0.0000000"
         y="0.0000000"
         width="310.00000"
         height="410.00000"
         xlink:href="#scarab" />
    </g>
    <g
       id="cairo_logo_dung-centered">
      <use
         id="use1574"
         x="0.0000000"
         y="0.0000000"
         width="310.00000"
         height="410.00000"
         xlink:href="#dung" />
      <use
         transform="translate(0.000000,170.0000)"
         id="use1576"
         x="0.0000000"
         y="0.0000000"
         width="310.00000"
         height="410.00000"
         xlink:href="#scarab" />
    </g>
    <g
       id="cairo_logo_scarab-centered">
      <use
         transform="translate(0.000000,-175.8500)"
         id="use1579"
         x="0.0000000"
         y="0.0000000"
         width="310.00000"
         height="410.00000"
         xlink:href="#dung" />
      <use
         transform="translate(0.000000,-5.850000)"
         id="use1581"
         x="0.0000000"
         y="0.0000000"
         width="310.00000"
         height="410.00000"
         xlink:href="#scarab" />
    </g>
    <g
       id="cairo_logo_top-centered">
      <use
         transform="translate(0.000000,60.00000)"
         id="use1584"
         x="0.0000000"
         y="0.0000000"
         width="310.00000"
         height="410.00000"
         xlink:href="#dung" />
      <use
         transform="translate(0.000000,230.0000)"
         id="use1586"
         x="0.0000000"
         y="0.0000000"
         width="310.00000"
         height="410.00000"
         xlink:href="#scarab" />
    </g>
    <g
       id="cairo_logo_bottom-centered">
      <use
         transform="translate(0.000000,-340.0000)"
         id="use1589"
         x="0.0000000"
         y="0.0000000"
         width="310.00000"
         height="410.00000"
         xlink:href="#dung" />
      <use
         transform="translate(0.000000,-170.0000)"
         id="use1591"
         x="0.0000000"
         y="0.0000000"
         width="310.00000"
         height="410.00000"
         xlink:href="#scarab" />
    </g>
    <g
       id="cairo_logo_right-centered">
      <use
         transform="translate(-150.0000,-140.0000)"
         id="use1594"
         x="0.0000000"
         y="0.0000000"
         width="310.00000"
         height="410.00000"
         xlink:href="#dung" />
      <use
         transform="translate(-150.0000,30.00000)"
         id="use1596"
         x="0.0000000"
         y="0.0000000"
         width="310.00000"
         height="410.00000"
         xlink:href="#scarab" />
    </g>
    <g
       id="cairo_logo_left-centered">
      <use
         transform="translate(150.0000,-140.0000)"
         id="use1599"
         x="0.0000000"
         y="0.0000000"
         width="310.00000"
         height="410.00000"
         xlink:href="#dung" />
      <use
         transform="translate(150.0000,30.00000)"
         id="use1601"
         x="0.0000000"
         y="0.0000000"
         width="310.00000"
         height="410.00000"
         xlink:href="#scarab" />
    </g>
    <g
       id="cairo_logo_topleft-centered">
      <use
         transform="translate(150.0000,60.00000)"
         id="use1604"
         x="0.0000000"
         y="0.0000000"
         width="310.00000"
         height="410.00000"
         xlink:href="#dung" />
      <use
         transform="translate(150.0000,230.0000)"
         id="use1606"
         x="0.0000000"
         y="0.0000000"
         width="310.00000"
         height="410.00000"
         xlink:href="#scarab" />
    </g>
    <g
       id="cairo_logo_topright-centered">
      <use
         transform="translate(-150.0000,60.00000)"
         id="use1609"
         x="0.0000000"
         y="0.0000000"
         width="310.00000"
         height="410.00000"
         xlink:href="#dung" />
      <use
         transform="translate(-150.0000,230.0000)"
         id="use1611"
         x="0.0000000"
         y="0.0000000"
         width="310.00000"
         height="410.00000"
         xlink:href="#scarab" />
    </g>
    <g
       id="cairo_logo_bottomleft-centered">
      <use
         transform="translate(150.0000,-340.0000)"
         id="use1614"
         x="0.0000000"
         y="0.0000000"
         width="310.00000"
         height="410.00000"
         xlink:href="#dung" />
      <use
         transform="translate(150.0000,-170.0000)"
         id="use1616"
         x="0.0000000"
         y="0.0000000"
         width="310.00000"
         height="410.00000"
         xlink:href="#scarab" />
    </g>
    <g
       id="cairo_logo_bottomright-centered">
      <use
         transform="translate(-150.0000,-340.0000)"
         id="use1619"
         x="0.0000000"
         y="0.0000000"
         width="310.00000"
         height="410.00000"
         xlink:href="#dung" />
      <use
         transform="translate(-150.0000,-170.0000)"
         id="use1621"
         x="0.0000000"
         y="0.0000000"
         width="310.00000"
         height="410.00000"
         xlink:href="#scarab" />
    </g>
    <g
       transform="translate(0.000000,-97.00000)"
       id="cairo_text">
      <g
         transform="scale(0.148400,0.148400)"
         id="g1624">
        <g
           transform="translate(-1139.000,-208.5000)"
           id="g1626">
          <path
             d="M 412.00000,433.00000 C 385.00000,422.00000 336.00000,413.00000 298.00000,413.00000 C 142.00000,413.00000 38.000000,525.00000 38.000000,680.00000 C 38.000000,826.00000 144.00000,947.00000 298.00000,947.00000 C 332.00000,947.00000 377.00000,944.00000 416.00000,926.00000 L 409.00000,842.00000 C 380.00000,861.00000 340.00000,871.00000 308.00000,871.00000 C 187.00000,871.00000 138.00000,771.00000 138.00000,680.00000 C 138.00000,583.00000 197.00000,489.00000 302.00000,489.00000 C 332.00000,489.00000 368.00000,496.00000 404.00000,511.00000 L 412.00000,433.00000"
             transform="translate(65.00000,0.000000)"
             id="path1628" />
          <path
             d="M 109.00000,541.00000 C 147.00000,509.00000 204.00000,489.00000 257.00000,489.00000 C 351.00000,489.00000 383.00000,534.00000 383.00000,622.00000 C 346.00000,620.00000 320.00000,620.00000 283.00000,620.00000 C 186.00000,620.00000 46.000000,660.00000 46.000000,788.00000 C 46.000000,899.00000 123.00000,947.00000 233.00000,947.00000 C 319.00000,947.00000 369.00000,900.00000 391.00000,869.00000 L 393.00000,869.00000 L 393.00000,935.00000 L 481.00000,935.00000 C 479.00000,920.00000 477.00000,893.00000 477.00000,835.00000 L 477.00000,624.00000 C 477.00000,485.00000 418.00000,413.00000 272.00000,413.00000 C 207.00000,413.00000 151.00000,433.00000 104.00000,461.00000 L 109.00000,541.00000 M 383.00000,737.00000 C 383.00000,813.00000 334.00000,871.00000 241.00000,871.00000 C 198.00000,871.00000 146.00000,842.00000 146.00000,788.00000 C 146.00000,698.00000 272.00000,690.00000 323.00000,690.00000 C 343.00000,690.00000 363.00000,692.00000 383.00000,692.00000 L 383.00000,737.00000"
             transform="translate(486.7500,0.000000)"
             id="path1630" />
          <path
             d="M 92.000000,935.00000 L 186.00000,935.00000 L 186.00000,425.00000 L 92.000000,425.00000 L 92.000000,935.00000 M 88.000000,261.00000 C 88.000000,232.83348 110.83348,210.00000 139.00000,210.00000 C 167.16652,210.00000 190.00000,232.83348 190.00000,261.00000 C 190.00000,289.16652 167.16652,312.00000 139.00000,312.00000 C 110.83348,312.00000 88.000000,289.16652 88.000000,261.00000"
             transform="translate(1000.000,0.000000)"
             id="path1632" />
          <path
             d="M 80.000000,935.00000 L 174.00000,935.00000 L 174.00000,703.00000 C 174.00000,575.00000 229.00000,495.00000 313.00000,495.00000 C 329.00000,495.00000 348.00000,497.00000 365.00000,504.00000 L 365.00000,420.00000 C 345.00000,416.00000 331.00000,413.00000 303.00000,413.00000 C 249.00000,413.00000 195.00000,451.00000 170.00000,504.00000 L 168.00000,504.00000 L 168.00000,425.00000 L 80.000000,425.00000 L 80.000000,935.00000"
             transform="translate(1234.250,0.000000)"
             id="path1634" />
          <path
             d="M 46.000000,680.00000 C 46.000000,826.00000 152.00000,947.00000 306.00000,947.00000 C 459.00000,947.00000 565.00000,826.00000 565.00000,680.00000 C 565.00000,525.00000 461.00000,413.00000 306.00000,413.00000 C 150.00000,413.00000 46.000000,525.00000 46.000000,680.00000 M 146.00000,680.00000 C 146.00000,583.00000 205.00000,489.00000 306.00000,489.00000 C 406.00000,489.00000 465.00000,583.00000 465.00000,680.00000 C 465.00000,771.00000 416.00000,871.00000 306.00000,871.00000 C 195.00000,871.00000 146.00000,771.00000 146.00000,680.00000"
             transform="translate(1610.000,0.000000)"
             id="path1636" />
        </g>
      </g>
    </g>
    <g
       transform="translate(0.000000,-71.00000)"
       id="cairo_text_small">
      <g
         transform="scale(8.500000e-2,8.500000e-2)"
         id="g1639">
        <g
           transform="translate(-1139.000,-208.5000)"
           id="g1641">
          <path
             d="M 412.00000,433.00000 C 385.00000,422.00000 336.00000,413.00000 298.00000,413.00000 C 142.00000,413.00000 38.000000,525.00000 38.000000,680.00000 C 38.000000,826.00000 144.00000,947.00000 298.00000,947.00000 C 332.00000,947.00000 377.00000,944.00000 416.00000,926.00000 L 409.00000,842.00000 C 380.00000,861.00000 340.00000,871.00000 308.00000,871.00000 C 187.00000,871.00000 138.00000,771.00000 138.00000,680.00000 C 138.00000,583.00000 197.00000,489.00000 302.00000,489.00000 C 332.00000,489.00000 368.00000,496.00000 404.00000,511.00000 L 412.00000,433.00000"
             transform="translate(-151.0000,0.000000)"
             id="path1643" />
          <path
             d="M 109.00000,541.00000 C 147.00000,509.00000 204.00000,489.00000 257.00000,489.00000 C 351.00000,489.00000 383.00000,534.00000 383.00000,622.00000 C 346.00000,620.00000 320.00000,620.00000 283.00000,620.00000 C 186.00000,620.00000 46.000000,660.00000 46.000000,788.00000 C 46.000000,899.00000 123.00000,947.00000 233.00000,947.00000 C 319.00000,947.00000 369.00000,900.00000 391.00000,869.00000 L 393.00000,869.00000 L 393.00000,935.00000 L 481.00000,935.00000 C 479.00000,920.00000 477.00000,893.00000 477.00000,835.00000 L 477.00000,624.00000 C 477.00000,485.00000 418.00000,413.00000 272.00000,413.00000 C 207.00000,413.00000 151.00000,433.00000 104.00000,461.00000 L 109.00000,541.00000 M 383.00000,737.00000 C 383.00000,813.00000 334.00000,871.00000 241.00000,871.00000 C 198.00000,871.00000 146.00000,842.00000 146.00000,788.00000 C 146.00000,698.00000 272.00000,690.00000 323.00000,690.00000 C 343.00000,690.00000 363.00000,692.00000 383.00000,692.00000 L 383.00000,737.00000"
             transform="translate(379.5000,0.000000)"
             id="path1645" />
          <path
             d="M 92.000000,935.00000 L 186.00000,935.00000 L 186.00000,425.00000 L 92.000000,425.00000 L 92.000000,935.00000 M 88.000000,261.00000 C 88.000000,232.83348 110.83348,210.00000 139.00000,210.00000 C 167.16652,210.00000 190.00000,232.83348 190.00000,261.00000 C 190.00000,289.16652 167.16652,312.00000 139.00000,312.00000 C 110.83348,312.00000 88.000000,289.16652 88.000000,261.00000"
             transform="translate(1000.000,0.000000)"
             id="path1647" />
          <path
             d="M 80.000000,935.00000 L 174.00000,935.00000 L 174.00000,703.00000 C 174.00000,575.00000 229.00000,495.00000 313.00000,495.00000 C 329.00000,495.00000 348.00000,497.00000 365.00000,504.00000 L 365.00000,420.00000 C 345.00000,416.00000 331.00000,413.00000 303.00000,413.00000 C 249.00000,413.00000 195.00000,451.00000 170.00000,504.00000 L 168.00000,504.00000 L 168.00000,425.00000 L 80.000000,425.00000 L 80.000000,935.00000"
             transform="translate(1341.500,0.000000)"
             id="path1649" />
          <path
             d="M 46.000000,680.00000 C 46.000000,826.00000 152.00000,947.00000 306.00000,947.00000 C 459.00000,947.00000 565.00000,826.00000 565.00000,680.00000 C 565.00000,525.00000 461.00000,413.00000 306.00000,413.00000 C 150.00000,413.00000 46.000000,525.00000 46.000000,680.00000 M 146.00000,680.00000 C 146.00000,583.00000 205.00000,489.00000 306.00000,489.00000 C 406.00000,489.00000 465.00000,583.00000 465.00000,680.00000 C 465.00000,771.00000 416.00000,871.00000 306.00000,871.00000 C 195.00000,871.00000 146.00000,771.00000 146.00000,680.00000"
             transform="translate(1826.000,0.000000)"
             id="path1651" />
        </g>
      </g>
    </g>
    <g
       id="cairo_logo_with_text">
      <use
         transform="translate(0.000000,-245.0000)"
         id="use1654"
         x="0.0000000"
         y="0.0000000"
         width="310.00000"
         height="410.00000"
         xlink:href="#cairo_logo_top-centered" />
      <use
         transform="translate(0.000000,245.0000)"
         id="use1656"
         x="0.0000000"
         y="0.0000000"
         width="310.00000"
         height="410.00000"
         xlink:href="#cairo_text" />
    </g>
    <g
       id="cairo_banner">
      <use
         id="use1659"
         x="0.0000000"
         y="0.0000000"
         width="310.00000"
         height="410.00000"
         xlink:href="#cairo_logo_bottomleft-centered" />
      <use
         transform="translate(0.000000,42.00000)"
         style="fill:#000000"
         id="use1661"
         x="0.0000000"
         y="0.0000000"
         width="310.00000"
         height="410.00000"
         xlink:href="#cairo_text_small" />
      <use
         id="use1663"
         x="0.0000000"
         y="0.0000000"
         width="310.00000"
         height="410.00000"
         xlink:href="#cairo_logo_bottomleft-centered" />
    </g>
  </defs>
  <g
     transform="translate(5.000000,5.000000)"
     id="g1665">
    <use
       id="use1667"
       x="0.0000000"
       y="0.0000000"
       width="310.00000"
       height="410.00000"
       xlink:href="#cairo_logo_topleft-centered" />
  </g>
</svg>
